<?xml version="1.0" encoding="utf-8"?>
<!-- Generator: Adobe Illustrator 15.0.0, SVG Export Plug-In . SVG Version: 6.00 Build 0)  -->
<!DOCTYPE svg PUBLIC "-//W3C//DTD SVG 1.1//EN" "http://www.w3.org/Graphics/SVG/1.1/DTD/svg11.dtd">
<svg version="1.1" id="click" xmlns="http://www.w3.org/2000/svg" xmlns:xlink="http://www.w3.org/1999/xlink" x="0px" y="0px"
	 width="100px" height="80px" viewBox="0 0 100 80" enable-background="new 0 0 100 80" xml:space="preserve">
<path id="c1" d="M22.036,61.23c-0.901,1.835-1.903,3.397-3.004,4.697c-1.1,1.3-2.256,2.297-3.466,2.992
	c-1.21,0.694-2.423,1.109-3.634,1.251c-1.214,0.139-2.362-0.026-3.447-0.501c-1.085-0.472-2.084-1.25-3-2.342
	c-0.921-1.087-1.731-2.466-2.435-4.133c-0.702-1.666-1.227-3.652-1.568-5.96c-0.583-3.94-0.65-7.888-0.202-11.842
	c0.451-3.954,1.369-7.567,2.754-10.839c1.385-3.273,3.203-5.989,5.451-8.142c2.245-2.158,4.897-3.415,7.948-3.764
	c0.938-0.108,1.87-0.003,2.791,0.319c0.923,0.318,1.753,0.819,2.491,1.503c0.737,0.682,1.372,1.544,1.907,2.592
	c0.53,1.046,0.896,2.242,1.096,3.584c0.037,0.252,0.076,0.513,0.116,0.787c0.041,0.275,0.063,0.558,0.069,0.856l-7.363,3.085
	c-0.624-0.993-1.25-1.455-1.877-1.384c-0.625,0.073-1.225,0.539-1.792,1.392c-0.57,0.854-1.097,1.94-1.577,3.253
	c-0.484,1.313-0.924,2.772-1.323,4.373c-0.399,1.604-0.72,3.207-0.96,4.813c-0.239,1.604-0.4,3.126-0.486,4.567
	c-0.086,1.437-0.064,2.596,0.065,3.479c0.197,1.34,0.505,2.262,0.918,2.77c0.411,0.508,0.894,0.728,1.441,0.666
	c0.43-0.05,0.893-0.285,1.391-0.702c0.492-0.422,0.932-0.94,1.32-1.559c0.384-0.621,0.719-1.313,1.005-2.07
	c0.286-0.757,0.456-1.501,0.506-2.229l7.117,2.12C23.691,57.277,22.939,59.402,22.036,61.23z"/>
<path id="l" d="M36.241,59.72c-1.354,0.144-2.715,0.323-4.084,0.539c-1.371,0.221-2.709,0.487-4.01,0.796
	c-1.305,0.311-2.479,0.659-3.521,1.052c0.129-1.708,0.288-3.604,0.471-5.696c0.184-2.091,0.412-4.261,0.686-6.508
	c0.273-2.244,0.545-4.509,0.814-6.791c0.271-2.287,0.556-4.476,0.858-6.572c0.672-4.987,1.401-10.074,2.179-15.26l10.258-1.808
	c-0.786,4.427-1.54,8.737-2.266,12.937c-0.321,1.798-0.637,3.653-0.95,5.578c-0.314,1.93-0.61,3.808-0.888,5.638
	c-0.282,1.829-0.526,3.599-0.733,5.312c-0.207,1.711-0.368,3.234-0.481,4.567c0.978-0.126,2.03-0.223,3.152-0.298
	s2.115-0.135,2.983-0.177c0.083,0.718,0.185,1.418,0.309,2.118c0.124,0.69,0.251,1.318,0.386,1.88
	c0.136,0.556,0.246,1.052,0.331,1.486c0.087,0.429,0.155,0.722,0.205,0.869c-0.314,0.018-0.62,0.021-0.917,0.018
	c-0.298-0.005-0.604,0.003-0.919,0.019C38.883,59.477,37.594,59.579,36.241,59.72z"/>
<path id="i" d="M47.407,50.704c-1.034,0.161-2.095,0.335-3.185,0.525c-1.09,0.2-2.071,0.383-2.947,0.54
	c-0.877,0.161-1.35,0.268-1.425,0.302c0.256-1.38,0.511-2.916,0.76-4.595c0.248-1.684,0.499-3.443,0.75-5.289
	c0.251-1.838,0.482-3.705,0.69-5.589c0.208-1.885,0.403-3.704,0.583-5.466c0.425-4.087,0.838-8.282,1.24-12.593l9.08-1.895
	c-0.483,4.286-0.959,8.489-1.415,12.612c-0.183,1.758-0.368,3.575-0.555,5.462c-0.19,1.88-0.381,3.75-0.571,5.601
	c-0.192,1.853-0.358,3.649-0.503,5.389c-0.145,1.741-0.287,3.306-0.422,4.711C49.133,50.444,48.44,50.545,47.407,50.704z"/>
<path id="c2" d="M70.987,38.162c-0.791,1.196-1.658,2.219-2.607,3.088c-0.947,0.859-1.935,1.536-2.963,2.025
	c-1.03,0.485-2.057,0.795-3.077,0.929c-1.022,0.144-1.986,0.083-2.889-0.174c-0.907-0.25-1.731-0.699-2.486-1.354
	c-0.753-0.646-1.412-1.483-1.975-2.507c-0.564-1.021-0.972-2.251-1.219-3.692c-0.426-2.459-0.416-4.946,0.029-7.459
	c0.444-2.512,1.278-4.827,2.498-6.945c1.219-2.117,2.793-3.901,4.721-5.353c1.925-1.45,4.173-2.351,6.746-2.692
	c0.791-0.108,1.572-0.078,2.344,0.086c0.768,0.166,1.455,0.448,2.065,0.85c0.611,0.399,1.127,0.917,1.563,1.556
	c0.429,0.64,0.713,1.378,0.859,2.217c0.023,0.157,0.054,0.32,0.082,0.491c0.034,0.169,0.045,0.347,0.045,0.536l-6.243,2.242
	c-0.509-0.6-1.027-0.865-1.554-0.795c-0.525,0.07-1.038,0.387-1.528,0.949c-0.496,0.562-0.957,1.267-1.384,2.114
	c-0.43,0.848-0.822,1.782-1.186,2.813c-0.363,1.026-0.658,2.049-0.888,3.07c-0.228,1.021-0.391,1.99-0.484,2.899
	c-0.099,0.91-0.101,1.639-0.005,2.188c0.143,0.842,0.388,1.412,0.727,1.714c0.336,0.304,0.736,0.424,1.197,0.359
	c0.361-0.047,0.758-0.213,1.18-0.497c0.423-0.284,0.803-0.63,1.138-1.036c0.334-0.408,0.628-0.854,0.881-1.346
	c0.253-0.487,0.411-0.966,0.464-1.426l5.948,1.051C72.443,35.606,71.776,36.979,70.987,38.162z"/>
<path id="k" d="M73.859,38.441c0.519-3.275,0.98-6.45,1.392-9.53c0.14-1.326,0.282-2.694,0.441-4.115
	c0.152-1.417,0.284-2.822,0.396-4.212c0.111-1.389,0.193-2.732,0.245-4.036c0.053-1.301,0.063-2.48,0.039-3.533
	c0.78-0.047,1.663-0.113,2.646-0.2c0.979-0.084,1.893-0.156,2.741-0.212c1.02-0.078,2.031-0.178,3.041-0.301
	c-0.02,0.096-0.047,0.271-0.075,0.526c-0.029,0.255-0.066,0.565-0.112,0.925c-0.048,0.364-0.097,0.763-0.146,1.205
	c-0.054,0.442-0.112,0.886-0.18,1.331c-0.114,1.023-0.243,2.173-0.39,3.451l0.299-0.073c0.283-0.396,0.688-0.955,1.203-1.671
	c0.522-0.72,1.067-1.479,1.626-2.279c0.561-0.803,1.109-1.576,1.645-2.319c0.538-0.738,0.988-1.376,1.35-1.9
	c1.671-0.294,3.334-0.6,4.999-0.918c1.668-0.316,3.328-0.667,4.98-1.051c-1.357,1.611-2.672,3.193-3.942,4.743
	c-0.546,0.667-1.096,1.351-1.656,2.061c-0.561,0.709-1.107,1.408-1.651,2.095c-0.545,0.685-1.053,1.34-1.517,1.972
	c-0.471,0.63-0.883,1.208-1.25,1.732c1.092,2.185,2.313,4.272,3.653,6.269c1.336,1.992,2.705,4.03,4.091,6.108
	c-0.782,0.071-1.574,0.152-2.379,0.238c-0.815,0.089-1.604,0.179-2.378,0.271c-0.976,0.12-1.918,0.237-2.826,0.358
	c-0.906,0.124-1.842,0.256-2.816,0.396c-0.53-1.429-1.102-2.925-1.706-4.491c-0.604-1.566-1.167-3.062-1.7-4.488l-0.801,0.817
	c-0.127,0.706-0.258,1.57-0.389,2.592c-0.134,1.026-0.26,2.019-0.387,2.972c-0.134,1.118-0.277,2.272-0.437,3.461L73.859,38.441z"/>
</svg>
