<?xml version="1.0" encoding="utf-8"?>
<!-- Generator: Adobe Illustrator 15.0.0, SVG Export Plug-In . SVG Version: 6.00 Build 0)  -->
<!DOCTYPE svg PUBLIC "-//W3C//DTD SVG 1.1//EN" "http://www.w3.org/Graphics/SVG/1.1/DTD/svg11.dtd">
<svg version="1.1" xmlns="http://www.w3.org/2000/svg" xmlns:xlink="http://www.w3.org/1999/xlink" x="0px" y="0px" width="100px"
	 height="80px" viewBox="0 0 100 80" enable-background="new 0 0 100 80" xml:space="preserve">
<g id="click">
	<path id="c1" d="M20.831,70.724c-0.87,1.77-1.835,3.277-2.898,4.531c-1.062,1.253-2.177,2.215-3.344,2.886
		c-1.168,0.67-2.338,1.07-3.506,1.207c-1.171,0.134-2.279-0.025-3.325-0.483c-1.047-0.455-2.01-1.206-2.894-2.259
		c-0.889-1.049-1.669-2.379-2.349-3.987c-0.677-1.606-1.184-3.522-1.513-5.749c-0.563-3.801-0.627-7.608-0.195-11.423
		c0.435-3.814,1.32-7.3,2.657-10.456c1.336-3.157,3.09-5.777,5.259-7.854c2.166-2.082,4.724-3.294,7.667-3.631
		c0.905-0.104,1.804-0.003,2.692,0.308c0.891,0.307,1.691,0.791,2.403,1.45c0.711,0.658,1.323,1.49,1.84,2.501
		c0.511,1.009,0.864,2.162,1.057,3.457c0.036,0.243,0.073,0.495,0.112,0.759c0.039,0.266,0.062,0.538,0.066,0.826l-7.103,2.976
		c-0.602-0.957-1.206-1.403-1.811-1.335c-0.603,0.07-1.181,0.52-1.729,1.343c-0.55,0.824-1.058,1.872-1.521,3.138
		c-0.467,1.267-0.892,2.675-1.276,4.219c-0.385,1.547-0.695,3.094-0.926,4.644c-0.23,1.548-0.386,3.016-0.469,4.406
		c-0.083,1.386-0.063,2.504,0.063,3.355c0.19,1.292,0.487,2.182,0.886,2.671c0.397,0.49,0.862,0.702,1.39,0.643
		c0.415-0.048,0.861-0.274,1.341-0.677c0.475-0.407,0.899-0.907,1.273-1.504c0.37-0.599,0.694-1.266,0.97-1.997
		c0.276-0.73,0.44-1.448,0.488-2.15l6.866,2.045C22.428,66.91,21.703,68.96,20.831,70.724z"/>
	<path id="l" d="M34.534,69.266c-1.306,0.139-2.619,0.313-3.94,0.521c-1.322,0.213-2.613,0.47-3.868,0.768
		c-1.259,0.3-2.392,0.636-3.396,1.015c0.124-1.647,0.277-3.478,0.455-5.495c0.177-2.017,0.397-4.11,0.662-6.277
		c0.263-2.165,0.525-4.35,0.786-6.552c0.262-2.206,0.537-4.317,0.828-6.34c0.648-4.811,1.351-9.718,2.102-14.721l9.895-1.744
		c-0.758,4.271-1.485,8.429-2.186,12.48c-0.309,1.734-0.614,3.524-0.917,5.381c-0.303,1.861-0.588,3.673-0.856,5.438
		c-0.272,1.765-0.507,3.472-0.707,5.124c-0.2,1.65-0.355,3.12-0.464,4.405c0.943-0.121,1.958-0.215,3.041-0.287
		s2.041-0.13,2.877-0.171c0.081,0.692,0.179,1.368,0.298,2.044c0.12,0.666,0.243,1.271,0.372,1.813
		c0.131,0.536,0.237,1.015,0.319,1.434c0.084,0.413,0.149,0.696,0.197,0.838c-0.303,0.018-0.598,0.021-0.884,0.018
		c-0.288-0.005-0.583,0.003-0.887,0.018C37.083,69.031,35.839,69.13,34.534,69.266z"/>
	<path id="i" d="M45.305,60.569c-0.997,0.155-2.021,0.322-3.072,0.507c-1.052,0.192-1.998,0.369-2.843,0.521
		c-0.846,0.155-1.302,0.258-1.375,0.291c0.248-1.331,0.493-2.813,0.733-4.433c0.239-1.624,0.481-3.321,0.724-5.102
		c0.243-1.773,0.465-3.574,0.666-5.392c0.201-1.818,0.389-3.573,0.563-5.272c0.41-3.943,0.809-7.989,1.196-12.148l8.758-1.828
		c-0.466,4.134-0.924,8.188-1.365,12.167c-0.176,1.696-0.356,3.449-0.535,5.269c-0.184,1.813-0.368,3.617-0.551,5.402
		c-0.187,1.787-0.347,3.521-0.486,5.198c-0.14,1.68-0.277,3.189-0.407,4.545C46.97,60.318,46.302,60.415,45.305,60.569z"/>
	<path id="c2" d="M68.052,48.471c-0.763,1.153-1.6,2.14-2.515,2.979c-0.914,0.829-1.866,1.481-2.858,1.953
		c-0.994,0.469-1.984,0.768-2.969,0.896c-0.986,0.139-1.916,0.08-2.786-0.168c-0.875-0.241-1.671-0.675-2.398-1.307
		c-0.727-0.623-1.362-1.431-1.905-2.418c-0.544-0.985-0.938-2.172-1.176-3.562c-0.41-2.373-0.401-4.771,0.028-7.196
		c0.429-2.423,1.233-4.656,2.41-6.7c1.176-2.042,2.694-3.764,4.554-5.164c1.856-1.398,4.025-2.268,6.508-2.597
		c0.763-0.104,1.517-0.075,2.261,0.083c0.74,0.16,1.403,0.433,1.992,0.82c0.59,0.385,1.087,0.884,1.508,1.501
		c0.413,0.618,0.688,1.33,0.829,2.139c0.022,0.152,0.052,0.309,0.079,0.474c0.032,0.163,0.043,0.334,0.043,0.517l-6.022,2.163
		c-0.491-0.579-0.991-0.835-1.499-0.768c-0.507,0.067-1.001,0.373-1.475,0.916c-0.479,0.542-0.923,1.222-1.334,2.039
		c-0.415,0.818-0.794,1.719-1.145,2.713c-0.35,0.99-0.635,1.977-0.855,2.962c-0.22,0.985-0.377,1.919-0.468,2.796
		c-0.095,0.878-0.097,1.581-0.005,2.11c0.138,0.813,0.374,1.362,0.701,1.653c0.324,0.293,0.71,0.409,1.155,0.347
		c0.349-0.045,0.73-0.205,1.138-0.479c0.408-0.274,0.774-0.607,1.098-0.999c0.322-0.395,0.605-0.824,0.85-1.299
		c0.244-0.47,0.396-0.932,0.447-1.376l5.738,1.014C69.456,46.005,68.813,47.328,68.052,48.471z"/>
	<path id="k" d="M70.822,48.739c0.5-3.159,0.946-6.222,1.343-9.192c0.135-1.279,0.272-2.599,0.426-3.969
		c0.146-1.367,0.274-2.723,0.382-4.063c0.107-1.34,0.187-2.636,0.236-3.894c0.051-1.255,0.061-2.393,0.037-3.408
		c0.753-0.045,1.604-0.109,2.553-0.193c0.945-0.081,1.826-0.151,2.645-0.205c0.983-0.075,1.96-0.172,2.934-0.29
		c-0.019,0.092-0.045,0.261-0.072,0.507c-0.028,0.246-0.064,0.545-0.108,0.893c-0.046,0.351-0.094,0.736-0.141,1.162
		c-0.052,0.426-0.108,0.854-0.173,1.284c-0.11,0.987-0.234,2.096-0.376,3.329l0.288-0.07c0.273-0.381,0.663-0.921,1.16-1.612
		c0.505-0.694,1.03-1.427,1.569-2.198c0.54-0.775,1.069-1.521,1.586-2.237c0.52-0.712,0.953-1.328,1.302-1.833
		c1.612-0.283,3.217-0.579,4.822-0.885c1.609-0.305,3.211-0.644,4.805-1.014c-1.31,1.554-2.577,3.08-3.803,4.576
		c-0.527,0.643-1.058,1.303-1.598,1.988c-0.541,0.684-1.068,1.358-1.594,2.021c-0.525,0.66-1.015,1.293-1.463,1.902
		c-0.454,0.608-0.852,1.165-1.205,1.671c1.053,2.107,2.23,4.121,3.523,6.047c1.289,1.921,2.609,3.887,3.946,5.892
		c-0.754,0.068-1.519,0.146-2.295,0.229c-0.786,0.086-1.548,0.173-2.294,0.262c-0.94,0.116-1.85,0.229-2.726,0.346
		c-0.874,0.12-1.777,0.247-2.717,0.382c-0.512-1.378-1.063-2.821-1.646-4.332c-0.583-1.511-1.125-2.954-1.64-4.329l-0.772,0.789
		c-0.122,0.681-0.249,1.515-0.375,2.5c-0.129,0.99-0.251,1.947-0.373,2.867c-0.129,1.078-0.268,2.192-0.421,3.339L70.822,48.739z"/>
</g>
<g id="double">
	<path id="d" d="M18.681,21.476c-0.258,1.338-0.674,2.679-1.253,4.024c-0.578,1.343-1.328,2.647-2.248,3.908
		c-0.924,1.259-2,2.39-3.23,3.387c-1.233,0.999-2.61,1.833-4.13,2.506c-1.521,0.672-3.173,1.089-4.95,1.246
		c-0.373,0.034-0.747,0.048-1.122,0.048c-0.375,0.001-0.75-0.006-1.128-0.018c0.383-3.138,0.761-6.197,1.135-9.172
		c0.131-1.248,0.271-2.549,0.421-3.901c0.149-1.35,0.284-2.682,0.407-4c0.125-1.314,0.25-2.573,0.375-3.776
		c0.122-1.201,0.21-2.291,0.268-3.26c1.121-0.282,2.258-0.548,3.41-0.808c1.15-0.26,2.338-0.442,3.558-0.549
		c1.435-0.127,2.669-0.043,3.707,0.246c1.036,0.291,1.902,0.742,2.601,1.356c0.694,0.613,1.237,1.353,1.626,2.218
		c0.39,0.865,0.641,1.799,0.75,2.801C19.003,18.89,18.938,20.139,18.681,21.476z M8.689,19.809c-0.188,1.231-0.376,2.474-0.56,3.726
		c-0.187,1.256-0.366,2.563-0.537,3.926c-0.174,1.365-0.322,2.853-0.442,4.459c0.597-0.414,1.164-0.952,1.694-1.618
		c0.531-0.666,1.018-1.423,1.462-2.271c0.444-0.849,0.838-1.739,1.179-2.667c0.341-0.93,0.624-1.833,0.852-2.708
		c0.227-0.874,0.385-1.686,0.478-2.437c0.095-0.75,0.11-1.393,0.05-1.927c-0.089-0.826-0.431-1.446-1.026-1.866
		c-0.595-0.418-1.477-0.579-2.645-0.476C9.044,17.295,8.876,18.578,8.689,19.809z"/>
	<path id="o" d="M38.185,17.757c-0.132,1.463-0.442,2.841-0.93,4.133c-0.487,1.292-1.128,2.487-1.92,3.58
		c-0.793,1.089-1.665,2.058-2.611,2.903c-0.946,0.843-1.943,1.537-2.986,2.084c-1.046,0.545-2.077,0.914-3.096,1.107
		c-0.86,0.165-1.671,0.195-2.432,0.092c-0.76-0.099-1.456-0.338-2.086-0.704c-0.633-0.365-1.184-0.884-1.654-1.558
		c-0.473-0.673-0.827-1.523-1.07-2.548c-0.248-1.061-0.329-2.216-0.239-3.462c0.09-1.247,0.311-2.507,0.667-3.787
		c0.353-1.274,0.863-2.521,1.532-3.739c0.67-1.219,1.457-2.335,2.364-3.349c0.909-1.016,1.932-1.879,3.072-2.592
		c1.144-0.711,2.391-1.198,3.749-1.457c1.175-0.224,2.188-0.232,3.041-0.027c0.85,0.206,1.56,0.546,2.121,1.024
		c0.563,0.477,1.017,1.05,1.368,1.717c0.345,0.669,0.601,1.354,0.766,2.056C38.204,14.785,38.323,16.293,38.185,17.757z
		 M25.371,25.622c0.157,0.208,0.35,0.378,0.57,0.515c0.224,0.138,0.486,0.24,0.79,0.313c0.301,0.07,0.611,0.078,0.924,0.017
		c1.174-0.222,2.149-0.717,2.924-1.478c0.776-0.763,1.364-1.625,1.764-2.595c0.401-0.969,0.649-1.968,0.749-2.997
		c0.098-1.031,0.055-1.945-0.133-2.743c-0.053-0.226-0.129-0.47-0.231-0.728c-0.1-0.259-0.237-0.491-0.409-0.697
		c-0.169-0.205-0.398-0.364-0.685-0.478c-0.284-0.116-0.637-0.133-1.053-0.052c-0.837,0.159-1.571,0.458-2.206,0.895
		c-0.631,0.438-1.169,0.962-1.614,1.571c-0.442,0.609-0.798,1.271-1.067,1.988c-0.268,0.714-0.477,1.427-0.62,2.138
		c-0.149,0.715-0.213,1.396-0.197,2.046s0.079,1.205,0.185,1.659C25.111,25.207,25.214,25.414,25.371,25.622z"/>
	<path id="u" d="M52.697,22.977c0,0-0.309,0.399-0.932,1.185c-0.619,0.791-1.37,1.456-2.25,2.002
		c-0.88,0.542-1.831,0.959-2.852,1.248c-1.019,0.287-2.047,0.468-3.086,0.534c-0.613,0.039-1.243,0.008-1.892-0.09
		c-0.649-0.099-1.24-0.272-1.765-0.521c-0.527-0.25-0.975-0.579-1.341-0.985c-0.368-0.407-0.572-0.902-0.617-1.48
		c-0.006-0.072-0.012-0.15-0.018-0.224c-0.006-0.075,0.001-0.149,0.022-0.226c0.046-0.773,0.148-1.706,0.303-2.804
		c0.155-1.098,0.318-2.243,0.493-3.436c0.174-1.193,0.375-2.391,0.6-3.595c0.229-1.204,0.43-2.3,0.607-3.286
		c0.177-0.986,0.335-1.809,0.469-2.463c0.136-0.655,0.225-1.059,0.267-1.212c0.555-0.073,1.217-0.162,1.984-0.268
		c0.768-0.104,1.482-0.195,2.144-0.274c0.821-0.109,1.628-0.217,2.422-0.324c-0.515,2.302-0.967,4.385-1.357,6.246
		c-0.177,0.799-0.349,1.597-0.514,2.394c-0.164,0.801-0.32,1.532-0.47,2.197c-0.148,0.665-0.277,1.241-0.386,1.727
		c-0.109,0.483-0.198,0.879-0.268,1.184c-0.07,0.304-0.148,0.689-0.232,1.152c-0.085,0.467-0.111,0.885-0.082,1.258
		c0.023,0.298,0.148,0.539,0.376,0.721c0.229,0.181,0.502,0.266,0.822,0.246c0.452-0.028,0.813-0.179,1.088-0.451
		c0.273-0.269,0.496-0.59,0.667-0.955c0.174-0.369,0.292-0.735,0.355-1.107c0.065-0.369,0.129-0.659,0.193-0.868
		c0.116-0.552,0.251-1.166,0.396-1.841c0.149-0.674,0.295-1.377,0.437-2.107c0.146-0.731,0.286-1.477,0.428-2.235
		c0.143-0.759,0.277-1.5,0.408-2.219c0.321-1.671,0.63-3.399,0.919-5.18l6.045-0.664c-0.19,0.989-0.362,1.89-0.512,2.704
		c-0.149,0.817-0.31,1.746-0.482,2.789c-0.174,1.041-0.377,2.128-0.608,3.258c-0.233,1.13-0.46,2.242-0.683,3.333
		c-0.222,1.093-0.442,2.095-0.668,3.011C52.843,22.436,52.697,22.977,52.697,22.977z"/>
	<path id="b" d="M70.482,19.902c-0.437,0.652-1.026,1.25-1.787,1.792c-0.752,0.542-1.639,1.023-2.648,1.445
		c-1.019,0.422-2.087,0.777-3.213,1.073c-1.123,0.299-2.278,0.529-3.457,0.7c-1.184,0.168-2.319,0.266-3.414,0.297
		c-0.985,0.026-1.908-0.002-2.767-0.088c1.173-3.237,2.086-6.487,2.74-9.756c0.649-3.267,1.268-6.557,1.852-9.871
		c1.379-0.237,2.813-0.453,4.299-0.65c1.491-0.195,3.034-0.316,4.636-0.359c0.666-0.018,1.374,0.017,2.125,0.107
		c0.751,0.09,1.435,0.272,2.059,0.547c0.626,0.278,1.152,0.648,1.577,1.112c0.434,0.465,0.657,1.063,0.684,1.794
		c0.02,0.693-0.124,1.349-0.44,1.963c-0.311,0.612-0.718,1.172-1.219,1.68c-0.503,0.507-1.083,0.95-1.736,1.323
		c-0.654,0.376-1.33,0.663-2.015,0.866c0.35,0.118,0.715,0.292,1.103,0.519c0.377,0.229,0.734,0.497,1.063,0.809
		c0.331,0.312,0.603,0.685,0.82,1.118c0.214,0.433,0.328,0.925,0.346,1.474C71.115,18.547,70.91,19.249,70.482,19.902z
		 M61.573,16.366c-0.082,0.341-0.158,0.667-0.226,0.981c-0.07,0.313-0.146,0.642-0.229,0.98c-0.082,0.343-0.171,0.743-0.261,1.203
		c0.504-0.051,1.076-0.129,1.712-0.238c0.641-0.111,1.245-0.268,1.829-0.475c0.58-0.208,1.064-0.479,1.455-0.81
		c0.39-0.33,0.576-0.724,0.56-1.183c-0.009-0.329-0.149-0.599-0.405-0.812c-0.261-0.213-0.591-0.388-0.98-0.523
		c-0.393-0.135-0.814-0.229-1.27-0.282c-0.458-0.05-0.884-0.071-1.284-0.061c-0.135,0.003-0.247,0.006-0.338,0.009
		c-0.097,0.003-0.198,0.015-0.301,0.037C61.742,15.634,61.654,16.025,61.573,16.366z M63.258,9.22
		c-0.058,0.276-0.123,0.566-0.194,0.871c-0.067,0.302-0.146,0.604-0.229,0.9c-0.083,0.294-0.148,0.553-0.195,0.772
		c0.583-0.087,1.168-0.206,1.75-0.348c0.586-0.145,1.107-0.3,1.563-0.468c0.467-0.168,0.832-0.348,1.104-0.537
		c0.279-0.191,0.411-0.396,0.404-0.618c-0.011-0.273-0.138-0.493-0.384-0.661c-0.248-0.167-0.565-0.301-0.954-0.4
		c-0.394-0.099-0.789-0.167-1.208-0.201c-0.414-0.034-0.782-0.047-1.101-0.039l-0.403,0.01C63.364,8.705,63.314,8.944,63.258,9.22z"
		/>
	<path id="le" d="M78.879,21.926c-0.924,0.073-1.844,0.162-2.774,0.271c-0.93,0.108-1.833,0.237-2.725,0.389
		c-0.889,0.15-1.688,0.325-2.401,0.512c0.121-0.817,0.269-1.73,0.433-2.732c0.164-1,0.364-2.041,0.593-3.118
		c0.231-1.078,0.46-2.165,0.686-3.257c0.23-1.097,0.464-2.147,0.713-3.153c0.552-2.39,1.142-4.83,1.776-7.317l6.97-0.894
		c-0.625,2.125-1.221,4.193-1.792,6.208c-0.258,0.861-0.505,1.752-0.755,2.677c-0.25,0.922-0.488,1.823-0.711,2.701
		c-0.224,0.877-0.429,1.727-0.603,2.549c-0.175,0.821-0.316,1.55-0.412,2.188c0.658-0.061,1.371-0.11,2.134-0.15
		c0.759-0.037,1.43-0.067,2.018-0.089c0.039,0.34,0.1,0.679,0.171,1.01c0.067,0.333,0.137,0.634,0.222,0.904
		c0.074,0.268,0.144,0.506,0.189,0.71c0.055,0.208,0.09,0.345,0.123,0.416c-0.212,0.009-0.421,0.013-0.623,0.011
		c-0.197,0-0.4,0.002-0.621,0.01C80.665,21.804,79.79,21.855,78.879,21.926z"/>
	<path id="e" d="M83.186,21.15L86.979,1.94l12.563-1.484c-0.163,0.402-0.292,0.811-0.39,1.226c-0.112,0.345-0.21,0.703-0.299,1.072
		c-0.094,0.371-0.171,0.7-0.228,0.989c-0.27,0.035-0.646,0.07-1.138,0.109c-0.487,0.039-1.018,0.079-1.575,0.121
		c-0.555,0.044-1.122,0.083-1.695,0.117c-0.572,0.036-1.068,0.065-1.495,0.092l-1.032,4.841c0.818-0.086,1.59-0.161,2.303-0.22
		c0.586-0.052,1.185-0.098,1.796-0.134c0.622-0.039,1.064-0.076,1.357-0.111c-0.071,0.503-0.133,0.996-0.192,1.48
		c-0.052,0.482-0.129,0.979-0.225,1.483c-0.27,0.033-0.698,0.072-1.298,0.116c-0.596,0.047-1.201,0.097-1.806,0.15
		c-0.695,0.06-1.455,0.124-2.283,0.192l-0.98,4.972l5.781-0.965l-0.17,3.052L83.186,21.15z"/>
</g>
</svg>
